<svg width="24" height="24" viewBox="0 0 24 24" fill="none" xmlns="http://www.w3.org/2000/svg">
<path d="M12.4987 22.75H4.07875C2.50875 22.75 1.21875 21.49 1.21875 19.93V5.09C1.21875 3.56 1.78875 2.37 2.82875 1.72C3.87875 1.06 5.23875 1.08 6.64875 1.78L11.0887 3.96C12.2987 4.56 13.2487 6.07 13.2487 7.41V22C13.2487 22.41 12.9087 22.75 12.4987 22.75ZM4.55875 2.75C4.20875 2.75 3.88875 2.83 3.61875 3C3.03875 3.36 2.71875 4.11 2.71875 5.09V19.93C2.71875 20.66 3.32875 21.25 4.07875 21.25H11.7487V7.41C11.7487 6.64 11.1287 5.65 10.4187 5.31L5.97875 3.13C5.46875 2.88 4.98875 2.75 4.55875 2.75Z" fill="#DFA105"/>
<path d="M18.81 22.75H12.5C12.09 22.75 11.75 22.41 11.75 22V10.42C11.75 10.19 11.85 9.98 12.03 9.84C12.21 9.7 12.43 9.64 12.66 9.69L13.13 9.79L19.67 11.25C21.66 11.69 22.66 12.86 22.72 14.85C22.73 14.85 22.73 14.95 22.73 15.06V18.84C22.72 21.4 21.37 22.75 18.81 22.75ZM13.25 21.25H18.81C20.57 21.25 21.22 20.6 21.22 18.84V14.98C21.17 13.61 20.65 13 19.34 12.71L13.25 11.35V21.25Z" fill="#DFA105"/>
<path d="M8.97 9.75H5.5C5.09 9.75 4.75 9.41 4.75 9C4.75 8.59 5.09 8.25 5.5 8.25H8.97C9.38 8.25 9.72 8.59 9.72 9C9.72 9.41 9.39 9.75 8.97 9.75Z" fill="#DFA105"/>
<path d="M8.97 13.75H5.5C5.09 13.75 4.75 13.41 4.75 13C4.75 12.59 5.09 12.25 5.5 12.25H8.97C9.38 12.25 9.72 12.59 9.72 13C9.72 13.41 9.39 13.75 8.97 13.75Z" fill="#DFA105"/>
<path d="M15.2188 17.75C13.5688 17.75 12.2188 16.4 12.2188 14.75V10.52C12.2188 10.29 12.3187 10.08 12.4987 9.93C12.6787 9.78 12.9087 9.73 13.1287 9.78L17.6287 10.79C17.9687 10.87 18.2187 11.17 18.2187 11.52V14.74C18.2187 16.4 16.8787 17.75 15.2188 17.75ZM13.7188 11.46V14.75C13.7188 15.58 14.3888 16.25 15.2188 16.25C16.0487 16.25 16.7187 15.58 16.7187 14.75V12.13L13.7188 11.46Z" fill="#DFA105"/>
<path d="M19.7188 17.75C18.0688 17.75 16.7188 16.4 16.7188 14.75V11.53C16.7188 11.3 16.8188 11.09 16.9988 10.95C17.1788 10.81 17.4087 10.75 17.6287 10.8L19.6588 11.25C21.6488 11.69 22.6487 12.86 22.7087 14.85C22.7087 14.87 22.7087 14.89 22.7087 14.91C22.6287 16.5 21.3187 17.75 19.7188 17.75ZM18.2188 12.46V14.75C18.2188 15.58 18.8888 16.25 19.7188 16.25C20.5087 16.25 21.1587 15.64 21.2087 14.86C21.1587 13.6 20.6388 13 19.3388 12.71L18.2188 12.46Z" fill="#DFA105"/>
</svg>
