<svg width="18" height="18" viewBox="0 0 18 18" fill="none" xmlns="http://www.w3.org/2000/svg">
<path d="M9.00016 10.6275C7.40266 10.6275 6.09766 9.33 6.09766 7.725C6.09766 6.12 7.40266 4.83 9.00016 4.83C10.5977 4.83 11.9027 6.1275 11.9027 7.7325C11.9027 9.3375 10.5977 10.6275 9.00016 10.6275ZM9.00016 5.955C8.02516 5.955 7.22266 6.75 7.22266 7.7325C7.22266 8.715 8.01766 9.51 9.00016 9.51C9.98266 9.51 10.7777 8.715 10.7777 7.7325C10.7777 6.75 9.97516 5.955 9.00016 5.955Z" fill="#363636" fill-opacity="0.7"/>
<path d="M9.00123 17.07C7.89123 17.07 6.77373 16.65 5.90373 15.8175C3.69123 13.6875 1.24623 10.29 2.16873 6.2475C3.00123 2.58 6.20373 0.9375 9.00123 0.9375C9.00123 0.9375 9.00123 0.9375 9.00873 0.9375C11.8062 0.9375 15.0087 2.58 15.8412 6.255C16.7562 10.2975 14.3112 13.6875 12.0987 15.8175C11.2287 16.65 10.1112 17.07 9.00123 17.07ZM9.00123 2.0625C6.81873 2.0625 4.01373 3.225 3.27123 6.495C2.46123 10.0275 4.68123 13.0725 6.69123 15C7.98873 16.2525 10.0212 16.2525 11.3187 15C13.3212 13.0725 15.5412 10.0275 14.7462 6.495C13.9962 3.225 11.1837 2.0625 9.00123 2.0625Z" fill="#363636" fill-opacity="0.7"/>
</svg>
