<svg width="24" height="24" viewBox="0 0 24 24" fill="none" xmlns="http://www.w3.org/2000/svg">
<path d="M12 10.52C11.59 10.52 11.25 10.18 11.25 9.77V6.44C11.25 6.03 11.59 5.69 12 5.69C12.41 5.69 12.75 6.03 12.75 6.44V9.77C12.75 10.19 12.41 10.52 12 10.52Z" fill="#7A7979"/>
<path d="M12.0208 20.35C9.44084 20.35 6.87084 19.94 4.42084 19.12C3.51084 18.82 2.82084 18.17 2.52084 17.35C2.22084 16.53 2.32084 15.59 2.81084 14.77L4.08084 12.65C4.36084 12.18 4.61084 11.3 4.61084 10.75V8.65C4.61084 4.56 7.93084 1.24 12.0208 1.24C16.1108 1.24 19.4308 4.56 19.4308 8.65V10.75C19.4308 11.29 19.6808 12.18 19.9608 12.65L21.2308 14.77C21.7008 15.55 21.7808 16.48 21.4708 17.33C21.1608 18.18 20.4808 18.83 19.6208 19.12C17.1708 19.95 14.6008 20.35 12.0208 20.35ZM12.0208 2.75C8.76084 2.75 6.11084 5.4 6.11084 8.66V10.76C6.11084 11.57 5.79084 12.74 5.37084 13.43L4.10084 15.56C3.84084 15.99 3.78084 16.45 3.93084 16.85C4.08084 17.25 4.42084 17.55 4.90084 17.71C9.50084 19.24 14.5608 19.24 19.1608 17.71C19.5908 17.57 19.9208 17.25 20.0708 16.83C20.2308 16.41 20.1808 15.95 19.9508 15.56L18.6808 13.44C18.2608 12.75 17.9408 11.58 17.9408 10.77V8.67C17.9308 5.4 15.2808 2.75 12.0208 2.75Z" fill="#7A7979"/>
<path d="M12.0019 22.9C10.9319 22.9 9.88187 22.46 9.12187 21.7C8.36187 20.94 7.92188 19.89 7.92188 18.82H9.42188C9.42188 19.5 9.70188 20.16 10.1819 20.64C10.6619 21.12 11.3219 21.4 12.0019 21.4C13.4219 21.4 14.5819 20.24 14.5819 18.82H16.0819C16.0819 21.07 14.2519 22.9 12.0019 22.9Z" fill="#7A7979"/>
</svg>
