<svg width="16" height="16" viewBox="0 0 16 16" fill="none" xmlns="http://www.w3.org/2000/svg">
<path d="M8.0013 8.49999C5.88797 8.49999 4.16797 6.77999 4.16797 4.66666C4.16797 2.55333 5.88797 0.833328 8.0013 0.833328C10.1146 0.833328 11.8346 2.55333 11.8346 4.66666C11.8346 6.77999 10.1146 8.49999 8.0013 8.49999ZM8.0013 1.83333C6.4413 1.83333 5.16797 3.10666 5.16797 4.66666C5.16797 6.22666 6.4413 7.49999 8.0013 7.49999C9.5613 7.49999 10.8346 6.22666 10.8346 4.66666C10.8346 3.10666 9.5613 1.83333 8.0013 1.83333Z" fill="#363636" fill-opacity="0.7"/>
<path d="M13.7268 15.1667C13.4534 15.1667 13.2268 14.94 13.2268 14.6667C13.2268 12.3667 10.8801 10.5 8.0001 10.5C5.1201 10.5 2.77344 12.3667 2.77344 14.6667C2.77344 14.94 2.54677 15.1667 2.27344 15.1667C2.0001 15.1667 1.77344 14.94 1.77344 14.6667C1.77344 11.82 4.56677 9.5 8.0001 9.5C11.4334 9.5 14.2268 11.82 14.2268 14.6667C14.2268 14.94 14.0001 15.1667 13.7268 15.1667Z" fill="#363636" fill-opacity="0.7"/>
</svg>
